# xmcd
#
# Track frame offsets: 
#        150
#        15330
#        33250
#        50580
#        68167
#        87544
#        111326
#        128068
#        145860
#        162039
#        185206
#        204098
#        225473
#
# Disc length: 3199 seconds
#
# Revision: 0
# Processed by: cddbd v1.5.2PL0 Copyright (c) Steve Scherf et al.
# Submitted via: ExactAudioCopy v1.0b3
#
DISCID=a90c7d0d
DTITLE=Dr John - Dr John Plays Mac Rebennack [1998 remaster]
DYEAR=1981
DGENRE=R&B
TTITLE0=Dorothy
TTITLE1=Mac's Boogie
TTITLE2=Memories of Professor Longhair
TTITLE3=The Nearness of You
TTITLE4=Delicado
TTITLE5=Silent Night
TTITLE6=Ti-Na-Na
TTITLE7=Wade in the Water
TTITLE8=Honey Dripper
TTITLE9=Big Mac
TTITLE10=New Island Midnight
TTITLE11=Saints
TTITLE12=Pinetop
EXTD=
EXTT0=
EXTT1=
EXTT2=
EXTT3=
EXTT4=
EXTT5=
EXTT6=
EXTT7=
EXTT8=
EXTT9=
EXTT10=
EXTT11=
EXTT12=
PLAYORDER=
